<svg width="849" height="380" viewBox="0 0 849 380" fill="none" xmlns="http://www.w3.org/2000/svg">
<mask id="path-1-inside-1_8_2" fill="white">
<path d="M49.9999 20C49.9999 8.9543 58.9542 0 69.9999 0H778C789.046 0 798 8.95431 798 20V300H49.9999V20Z"/>
</mask>
<path d="M49.9999 20C49.9999 8.9543 58.9542 0 69.9999 0H778C789.046 0 798 8.95431 798 20V300H49.9999V20Z" fill="url(#paint0_linear_8_2)"/>
<path d="M48.9999 20C48.9999 8.40202 58.402 -1 69.9999 -1H778C789.598 -1 799 8.40202 799 20H797C797 9.50659 788.493 1 778 1H69.9999C59.5065 1 50.9999 9.50659 50.9999 20H48.9999ZM798 300H49.9999H798ZM48.9999 300V20C48.9999 8.40202 58.402 -1 69.9999 -1V1C59.5065 1 50.9999 9.50659 50.9999 20V300H48.9999ZM778 -1C789.598 -1 799 8.40202 799 20V300H797V20C797 9.50659 788.493 1 778 1V-1Z" fill="black" fill-opacity="0.1" mask="url(#path-1-inside-1_8_2)"/>
<rect x="354.099" y="61.17" width="137" height="50" rx="10" transform="rotate(-3 354.099 61.17)" fill="#482307"/>
<path d="M377.905 95.3616C376.21 95.4504 374.497 95.222 372.769 94.6763C371.04 94.1306 369.571 93.3679 368.362 92.3882L370.724 88.4936C371.683 89.2883 372.785 89.9137 374.029 90.3701C375.284 90.8155 376.488 91.0079 377.643 90.9474C378.662 90.894 379.515 90.6459 380.201 90.2031C380.897 89.7598 381.229 89.2209 381.196 88.5863C381.183 88.3367 381.119 88.1157 381.005 87.9235C380.9 87.7204 380.724 87.5419 380.476 87.388C380.238 87.2335 380.007 87.1048 379.783 87.0018C379.568 86.8879 379.25 86.7794 378.827 86.6764C378.404 86.563 378.061 86.4819 377.797 86.4331C377.544 86.3734 377.154 86.2947 376.627 86.1972C371.423 85.2286 368.731 83.0175 368.55 79.5639C368.446 77.5874 369.143 75.955 370.64 74.6665C372.137 73.3781 374.16 72.6671 376.709 72.5335C378.342 72.4479 379.848 72.6194 381.226 73.0478C382.615 73.4757 383.757 74.073 384.653 74.8397L382.542 78.7368C381.864 78.1568 381.011 77.7008 379.982 77.3688C378.953 77.0368 377.929 76.8975 376.909 76.951C375.921 77.0028 375.119 77.2325 374.504 77.6403C373.889 78.0376 373.596 78.5275 373.627 79.1101C373.645 79.4534 373.771 79.7597 374.004 80.0291C374.237 80.2985 374.562 80.5214 374.978 80.6978C375.404 80.8737 375.834 81.018 376.268 81.1309C376.712 81.2432 377.217 81.3419 377.785 81.4269C378.174 81.4899 378.538 81.5595 378.876 81.6357C379.213 81.7015 379.678 81.8231 380.272 82.0007C380.865 82.1678 381.401 82.3587 381.882 82.5734C382.362 82.7777 382.878 83.0584 383.428 83.4155C383.978 83.7622 384.442 84.1499 384.819 84.5787C385.206 84.9965 385.536 85.5112 385.808 86.1228C386.079 86.724 386.233 87.3783 386.27 88.0857C386.34 89.4068 386.017 90.6128 385.302 91.7038C384.587 92.7844 383.584 93.6454 382.293 94.2867C381.001 94.9177 379.538 95.276 377.905 95.3616ZM389.307 94.3729L388.151 72.325L393.113 72.065L394.269 94.1128L389.307 94.3729ZM415.13 70.9111L421.168 70.5947L422.324 92.6425L417.378 92.9018L416.636 78.7493L411.612 89.48L408.804 89.6272L402.702 79.4795L403.444 93.632L398.482 93.892L397.326 71.8442L403.458 71.5228L409.849 82.1091L415.13 70.9111ZM435.196 69.8595C437.401 69.7439 439.28 70.3652 440.833 71.7233C442.384 73.071 443.216 74.8163 443.329 76.9592C443.441 79.1021 442.796 80.93 441.394 82.443C439.992 83.9455 438.188 84.7546 435.983 84.8701L431.13 85.1245L431.499 92.1617L426.537 92.4217L425.381 70.3739L435.196 69.8595ZM435.645 80.2096C436.425 80.1687 437.061 79.8642 437.552 79.296C438.054 78.7168 438.284 78.0268 438.242 77.2258C438.199 76.4144 437.899 75.7522 437.34 75.239C436.791 74.7254 436.127 74.489 435.347 74.5299L430.588 74.7793L430.885 80.459L435.645 80.2096ZM451.477 86.4364L460.667 85.9548L460.912 90.6202L446.759 91.3619L445.604 69.3141L450.566 69.054L451.477 86.4364ZM468.453 85.5467L478.611 85.0143L478.856 89.6798L463.736 90.4722L462.58 68.4243L477.544 67.6401L477.789 72.3056L467.787 72.8298L467.994 76.7931L476.935 76.3245L477.18 80.99L468.239 81.4586L468.453 85.5467Z" fill="white"/>
<rect x="347.229" y="121.102" width="156" height="50" rx="10" transform="rotate(3 347.229 121.102)" fill="#E15549"/>
<path d="M374.878 140.169L365.36 139.67L365.141 143.851L373.411 144.285L373.166 148.95L364.896 148.517L364.449 157.052L359.487 156.792L360.642 134.744L375.123 135.503L374.878 140.169ZM384.518 140.126L385.481 140.568L387.196 141.581L385.6 143.969L383.886 142.941L383.155 142.261L383.259 143.268L383.16 145.156L380.289 145.005L380.388 143.117L380.627 142.128L379.798 142.726L377.986 143.57L376.679 141.03L378.494 140.139L379.432 139.86L378.532 139.421L376.817 138.408L378.381 136.018L380.127 137.048L380.858 137.728L380.723 136.72L380.822 134.832L383.693 134.982L383.594 136.87L383.385 137.861L384.215 137.263L385.996 136.417L387.333 138.959L385.519 139.834L384.518 140.126ZM399.38 159.274C397.747 159.188 396.223 158.816 394.808 158.158C393.393 157.489 392.197 156.623 391.22 155.56C390.243 154.497 389.495 153.248 388.975 151.813C388.457 150.367 388.239 148.843 388.323 147.241C388.407 145.639 388.782 144.152 389.449 142.778C390.116 141.395 390.991 140.225 392.074 139.27C393.156 138.315 394.436 137.584 395.912 137.078C397.389 136.571 398.944 136.36 400.577 136.446C402.626 136.553 404.475 137.094 406.125 138.067C407.785 139.03 409.1 140.314 410.069 141.919L405.639 144.347C405.082 143.431 404.338 142.693 403.408 142.133C402.478 141.573 401.451 141.264 400.327 141.205C398.455 141.107 396.856 141.659 395.531 142.862C394.206 144.055 393.494 145.603 393.394 147.507C393.295 149.411 393.841 151.03 395.033 152.365C396.226 153.69 397.758 154.401 399.631 154.499C400.765 154.559 401.818 154.364 402.791 153.914C403.774 153.454 404.591 152.798 405.241 151.946L409.393 154.823C408.261 156.318 406.819 157.463 405.066 158.258C403.325 159.043 401.43 159.381 399.38 159.274ZM425.365 160.245L419.099 152.03L417.149 154.009L416.846 159.798L411.884 159.538L413.039 137.49L418.001 137.75L417.502 147.268L426.209 138.18L432.497 138.51L422.485 148.625L431.825 160.583L425.365 160.245ZM433.417 160.667L434.572 138.619L439.534 138.879L438.379 160.927L433.417 160.667ZM457.9 139.841L462.862 140.101L461.706 162.149L456.682 161.886L448.26 147.926L447.554 161.407L442.592 161.147L443.747 139.099L448.74 139.361L457.193 153.323L457.9 139.841ZM477.472 150.317L488.207 150.88L488.118 152.581C488.006 154.724 487.421 156.633 486.363 158.309C485.315 159.986 483.913 161.268 482.156 162.157C480.399 163.035 478.459 163.418 476.337 163.307C474.715 163.222 473.201 162.851 471.796 162.193C470.391 161.525 469.206 160.659 468.239 159.597C467.273 158.534 466.53 157.286 466.01 155.85C465.502 154.405 465.29 152.881 465.374 151.279C465.458 149.677 465.833 148.19 466.499 146.816C467.167 145.433 468.041 144.263 469.124 143.308C470.207 142.353 471.486 141.622 472.963 141.116C474.439 140.609 475.994 140.398 477.627 140.484C479.521 140.583 481.248 141.054 482.81 141.898C484.384 142.731 485.64 143.83 486.581 145.193L482.68 147.962C482.097 147.159 481.353 146.515 480.45 146.03C479.547 145.544 478.555 145.273 477.473 145.217C475.57 145.117 473.944 145.673 472.598 146.886C471.262 148.088 470.545 149.641 470.445 151.545C470.345 153.449 470.896 155.074 472.098 156.42C473.301 157.755 474.849 158.473 476.742 158.572C478.126 158.644 479.356 158.354 480.433 157.701C481.511 157.048 482.256 156.154 482.67 155.018L477.24 154.733L477.472 150.317Z" fill="white"/>
<rect x="326" y="195.968" width="194" height="50" rx="10" transform="rotate(-2 326 195.968)" fill="#482307" fill-opacity="0.5"/>
<path d="M351.923 230.475C350.289 230.532 348.738 230.294 347.27 229.762C345.803 229.219 344.536 228.461 343.47 227.487C342.404 226.513 341.55 225.334 340.907 223.949C340.265 222.554 339.915 221.055 339.859 219.452C339.803 217.848 340.047 216.334 340.592 214.908C341.136 213.471 341.905 212.23 342.901 211.184C343.896 210.138 345.107 209.299 346.534 208.665C347.96 208.032 349.491 207.686 351.125 207.629C353.176 207.558 355.066 207.935 356.793 208.76C358.531 209.575 359.953 210.74 361.058 212.254L356.857 215.059C356.222 214.195 355.417 213.525 354.442 213.048C353.466 212.572 352.416 212.353 351.292 212.392C349.418 212.458 347.873 213.147 346.658 214.461C345.442 215.765 344.868 217.369 344.934 219.274C345.001 221.179 345.686 222.745 346.99 223.971C348.294 225.187 349.882 225.762 351.756 225.696C352.891 225.657 353.923 225.371 354.853 224.838C355.793 224.294 356.55 223.57 357.122 222.664L361.509 225.168C360.512 226.756 359.175 228.022 357.499 228.967C355.833 229.901 353.974 230.403 351.923 230.475ZM379.034 229.137L377.524 225.313L368.561 225.626L367.322 229.546L362.013 229.732L369.534 207.377L375.39 207.173L384.468 228.947L379.034 229.137ZM370.01 220.994L375.756 220.793L372.598 212.742L370.01 220.994ZM391.628 224.023L400.826 223.701L400.989 228.371L386.826 228.865L386.055 206.8L391.021 206.627L391.628 224.023ZM408.618 223.429L418.784 223.074L418.947 227.743L403.815 228.272L403.045 206.207L418.02 205.684L418.183 210.353L408.174 210.703L408.312 214.669L417.26 214.357L417.423 219.026L408.475 219.338L408.618 223.429ZM435.697 205.067L440.663 204.894L441.433 226.958L436.405 227.134L426.799 213.961L427.27 227.453L422.304 227.626L421.534 205.562L426.531 205.387L436.168 218.559L435.697 205.067ZM453.53 204.444C455.112 204.389 456.611 204.618 458.025 205.131C459.44 205.645 460.659 206.374 461.682 207.318C462.715 208.251 463.542 209.389 464.162 210.733C464.782 212.077 465.119 213.524 465.173 215.076C465.228 216.627 464.992 218.094 464.467 219.478C463.942 220.862 463.197 222.06 462.232 223.074C461.277 224.087 460.112 224.899 458.737 225.51C457.361 226.121 455.883 226.454 454.3 226.509L445.602 226.813L444.832 204.748L453.53 204.444ZM454.012 221.844C455.813 221.781 457.291 221.12 458.446 219.86C459.6 218.6 460.146 217.065 460.083 215.253C460.02 213.442 459.368 211.953 458.129 210.788C456.889 209.611 455.369 209.055 453.568 209.118L449.961 209.244L450.405 221.97L454.012 221.844ZM482.377 225.528L480.867 221.704L471.904 222.017L470.665 225.937L465.356 226.123L472.877 203.769L478.733 203.564L487.811 225.339L482.377 225.528ZM473.353 217.385L479.099 217.185L475.941 209.134L473.353 217.385ZM502.068 224.841L497.261 217.457L494.871 217.541L495.135 225.083L490.169 225.256L489.398 203.192L498.971 202.857C501.167 202.781 503.019 203.42 504.525 204.774C506.032 206.129 506.822 207.862 506.896 209.976C506.949 211.506 506.585 212.869 505.804 214.063C505.021 215.247 503.948 216.134 502.582 216.724L508.017 224.633L502.068 224.841ZM494.527 207.687L494.72 213.215L499.218 213.058C499.977 213.032 500.603 212.749 501.095 212.211C501.597 211.662 501.835 210.997 501.807 210.216C501.78 209.425 501.502 208.773 500.973 208.26C500.444 207.746 499.795 207.503 499.025 207.53L494.527 207.687Z" fill="white"/>
<path d="M49.9999 300H798V360C798 371.046 789.046 380 778 380H70C58.9543 380 49.9999 371.046 49.9999 360V300Z" fill="url(#paint1_linear_8_2)"/>
<path d="M50.4999 300.5H797.5V360C797.5 370.77 788.769 379.5 778 379.5H70C59.2304 379.5 50.4999 370.77 50.4999 360V300.5Z" stroke="black" stroke-opacity="0.1"/>
<rect x="76.9999" y="327" width="85" height="25" rx="5" fill="#482307" fill-opacity="0.25"/>
<path d="M93.602 337.214C94.3849 337.214 95.0112 337.449 95.4809 337.919C95.9549 338.384 96.1918 339.007 96.1918 339.785V344H94.497V340.331C94.497 339.882 94.3637 339.525 94.0971 339.258C93.8347 338.987 93.4835 338.852 93.0434 338.852C92.5821 338.852 92.2076 338.992 91.9199 339.271C91.6363 339.546 91.4946 339.91 91.4946 340.363V344H89.8061V337.373H91.4946V338.109C92.0278 337.513 92.7302 337.214 93.602 337.214ZM101.549 337.214C102.154 337.214 102.702 337.367 103.193 337.671C103.688 337.972 104.076 338.389 104.355 338.922C104.634 339.451 104.774 340.039 104.774 340.687C104.774 341.334 104.634 341.924 104.355 342.458C104.076 342.986 103.688 343.403 103.193 343.708C102.702 344.008 102.154 344.159 101.549 344.159C100.678 344.159 99.9581 343.841 99.3911 343.207V346.469H97.7026V337.373H99.3911V338.16C99.9539 337.53 100.673 337.214 101.549 337.214ZM101.213 342.521C101.738 342.521 102.171 342.347 102.514 342C102.861 341.649 103.035 341.211 103.035 340.687C103.035 340.162 102.861 339.726 102.514 339.379C102.171 339.028 101.738 338.852 101.213 338.852C100.692 338.852 100.259 339.028 99.9116 339.379C99.5646 339.73 99.3911 340.166 99.3911 340.687C99.3911 341.207 99.5646 341.643 99.9116 341.994C100.259 342.345 100.692 342.521 101.213 342.521ZM114.01 337.214C114.759 337.214 115.358 337.439 115.806 337.887C116.259 338.336 116.485 338.935 116.485 339.684V344H114.79V340.191C114.79 339.785 114.672 339.461 114.435 339.22C114.202 338.975 113.889 338.852 113.496 338.852C113.081 338.852 112.744 338.977 112.486 339.227C112.228 339.476 112.099 339.806 112.099 340.217V344H110.411V340.191C110.411 339.789 110.29 339.466 110.049 339.22C109.812 338.975 109.494 338.852 109.097 338.852C108.686 338.852 108.352 338.979 108.094 339.233C107.836 339.483 107.706 339.811 107.706 340.217V344H106.018V337.373H107.706V338.059C108.206 337.496 108.86 337.214 109.668 337.214C110.129 337.214 110.538 337.31 110.893 337.5C111.253 337.686 111.538 337.951 111.75 338.293C112.296 337.574 113.049 337.214 114.01 337.214Z" fill="white"/>
<path d="M125.888 335.031H126.98V344H125.444V336.865L123.844 337.76L123.184 336.522L125.888 335.031ZM129.614 344.102C129.322 344.102 129.075 344.004 128.872 343.81C128.673 343.615 128.573 343.372 128.573 343.08C128.573 342.788 128.673 342.542 128.872 342.343C129.075 342.14 129.322 342.039 129.614 342.039C129.91 342.039 130.158 342.14 130.357 342.343C130.556 342.542 130.655 342.788 130.655 343.08C130.655 343.372 130.556 343.615 130.357 343.81C130.158 344.004 129.91 344.102 129.614 344.102ZM136.825 343.575C136.296 343.964 135.693 344.159 135.016 344.159C134.339 344.159 133.734 343.964 133.201 343.575C132.672 343.181 132.259 342.631 131.963 341.924C131.667 341.218 131.518 340.414 131.518 339.512C131.518 338.611 131.667 337.807 131.963 337.1C132.259 336.393 132.672 335.845 133.201 335.456C133.734 335.067 134.339 334.872 135.016 334.872C135.693 334.872 136.296 335.067 136.825 335.456C137.358 335.845 137.773 336.393 138.069 337.1C138.365 337.807 138.514 338.611 138.514 339.512C138.514 340.414 138.365 341.218 138.069 341.924C137.773 342.631 137.358 343.181 136.825 343.575ZM133.639 341.785C133.998 342.369 134.457 342.661 135.016 342.661C135.575 342.661 136.032 342.369 136.387 341.785C136.747 341.196 136.927 340.439 136.927 339.512C136.927 338.585 136.747 337.83 136.387 337.246C136.032 336.662 135.575 336.37 135.016 336.37C134.457 336.37 133.998 336.662 133.639 337.246C133.283 337.83 133.105 338.585 133.105 339.512C133.105 340.439 133.283 341.196 133.639 341.785ZM140.405 344.102C140.113 344.102 139.866 344.004 139.663 343.81C139.464 343.615 139.364 343.372 139.364 343.08C139.364 342.788 139.464 342.542 139.663 342.343C139.866 342.14 140.113 342.039 140.405 342.039C140.701 342.039 140.949 342.14 141.148 342.343C141.347 342.542 141.446 342.788 141.446 343.08C141.446 343.372 141.347 343.615 141.148 343.81C140.949 344.004 140.701 344.102 140.405 344.102ZM147.616 343.575C147.087 343.964 146.484 344.159 145.807 344.159C145.13 344.159 144.525 343.964 143.992 343.575C143.463 343.181 143.05 342.631 142.754 341.924C142.458 341.218 142.31 340.414 142.31 339.512C142.31 338.611 142.458 337.807 142.754 337.1C143.05 336.393 143.463 335.845 143.992 335.456C144.525 335.067 145.13 334.872 145.807 334.872C146.484 334.872 147.087 335.067 147.616 335.456C148.149 335.845 148.564 336.393 148.86 337.1C149.157 337.807 149.305 338.611 149.305 339.512C149.305 340.414 149.157 341.218 148.86 341.924C148.564 342.631 148.149 343.181 147.616 343.575ZM144.43 341.785C144.789 342.369 145.248 342.661 145.807 342.661C146.366 342.661 146.823 342.369 147.178 341.785C147.538 341.196 147.718 340.439 147.718 339.512C147.718 338.585 147.538 337.83 147.178 337.246C146.823 336.662 146.366 336.37 145.807 336.37C145.248 336.37 144.789 336.662 144.43 337.246C144.074 337.83 143.896 338.585 143.896 339.512C143.896 340.439 144.074 341.196 144.43 341.785Z" fill="white" fill-opacity="0.75"/>
<rect x="172" y="327" width="145" height="25" rx="5" fill="#482307" fill-opacity="0.25"/>
<path d="M192.798 337.214C193.547 337.214 194.146 337.439 194.594 337.887C195.047 338.336 195.273 338.935 195.273 339.684V344H193.579V340.191C193.579 339.785 193.46 339.461 193.223 339.22C192.99 338.975 192.677 338.852 192.284 338.852C191.869 338.852 191.532 338.977 191.274 339.227C191.016 339.476 190.887 339.806 190.887 340.217V344H189.199V340.191C189.199 339.789 189.078 339.466 188.837 339.22C188.6 338.975 188.282 338.852 187.885 338.852C187.474 338.852 187.14 338.979 186.882 339.233C186.624 339.483 186.495 339.811 186.495 340.217V344H184.806V337.373H186.495V338.059C186.994 337.496 187.648 337.214 188.456 337.214C188.917 337.214 189.326 337.31 189.681 337.5C190.041 337.686 190.326 337.951 190.538 338.293C191.084 337.574 191.837 337.214 192.798 337.214ZM198.377 336.091C198.174 336.294 197.922 336.396 197.622 336.396C197.322 336.396 197.068 336.294 196.86 336.091C196.657 335.888 196.556 335.638 196.556 335.342C196.556 335.046 196.657 334.796 196.86 334.593C197.068 334.39 197.322 334.288 197.622 334.288C197.922 334.288 198.174 334.39 198.377 334.593C198.585 334.796 198.688 335.046 198.688 335.342C198.688 335.638 198.585 335.888 198.377 336.091ZM196.778 344V337.373H198.466V344H196.778ZM203.874 337.214C204.657 337.214 205.284 337.449 205.753 337.919C206.227 338.384 206.464 339.007 206.464 339.785V344H204.769V340.331C204.769 339.882 204.636 339.525 204.37 339.258C204.107 338.987 203.756 338.852 203.316 338.852C202.855 338.852 202.48 338.992 202.192 339.271C201.909 339.546 201.767 339.91 201.767 340.363V344H200.079V337.373H201.767V338.109C202.3 337.513 203.003 337.214 203.874 337.214ZM210.032 342.362H213.136V344H207.664V342.762L210.679 339.011H207.715V337.373H213.047V338.604L210.032 342.362ZM216.037 336.091C215.833 336.294 215.582 336.396 215.281 336.396C214.981 336.396 214.727 336.294 214.519 336.091C214.316 335.888 214.215 335.638 214.215 335.342C214.215 335.046 214.316 334.796 214.519 334.593C214.727 334.39 214.981 334.288 215.281 334.288C215.582 334.288 215.833 334.39 216.037 334.593C216.244 334.796 216.348 335.046 216.348 335.342C216.348 335.638 216.244 335.888 216.037 336.091ZM214.437 344V337.373H216.125V344H214.437ZM221.584 337.214C222.19 337.214 222.738 337.367 223.228 337.671C223.724 337.972 224.111 338.389 224.39 338.922C224.669 339.451 224.809 340.039 224.809 340.687C224.809 341.334 224.669 341.924 224.39 342.458C224.111 342.986 223.724 343.403 223.228 343.708C222.738 344.008 222.19 344.159 221.584 344.159C220.713 344.159 219.993 343.841 219.426 343.207V346.469H217.738V337.373H219.426V338.16C219.989 337.53 220.708 337.214 221.584 337.214ZM221.248 342.521C221.773 342.521 222.206 342.347 222.549 342C222.896 341.649 223.07 341.211 223.07 340.687C223.07 340.162 222.896 339.726 222.549 339.379C222.206 339.028 221.773 338.852 221.248 338.852C220.727 338.852 220.294 339.028 219.947 339.379C219.6 339.73 219.426 340.166 219.426 340.687C219.426 341.207 219.6 341.643 219.947 341.994C220.294 342.345 220.727 342.521 221.248 342.521ZM229.9 337.214C230.505 337.214 231.053 337.367 231.544 337.671C232.039 337.972 232.426 338.389 232.706 338.922C232.985 339.451 233.124 340.039 233.124 340.687C233.124 341.334 232.985 341.924 232.706 342.458C232.426 342.986 232.039 343.403 231.544 343.708C231.053 344.008 230.505 344.159 229.9 344.159C229.028 344.159 228.309 343.841 227.742 343.207V346.469H226.053V337.373H227.742V338.16C228.304 337.53 229.024 337.214 229.9 337.214ZM229.563 342.521C230.088 342.521 230.522 342.347 230.865 342C231.212 341.649 231.385 341.211 231.385 340.687C231.385 340.162 231.212 339.726 230.865 339.379C230.522 339.028 230.088 338.852 229.563 338.852C229.043 338.852 228.609 339.028 228.262 339.379C227.915 339.73 227.742 340.166 227.742 340.687C227.742 341.207 227.915 341.643 228.262 341.994C228.609 342.345 229.043 342.521 229.563 342.521ZM240.97 340.699C240.97 340.911 240.957 341.11 240.932 341.296H235.797C235.915 341.715 236.142 342.047 236.476 342.292C236.81 342.538 237.217 342.661 237.695 342.661C238.08 342.661 238.433 342.584 238.755 342.432C239.076 342.276 239.33 342.079 239.517 341.842L240.646 342.832C240.295 343.251 239.859 343.577 239.339 343.81C238.823 344.042 238.258 344.159 237.644 344.159C236.95 344.159 236.322 344.006 235.759 343.702C235.196 343.397 234.756 342.978 234.438 342.445C234.121 341.907 233.962 341.313 233.962 340.661C233.962 340.018 234.115 339.434 234.419 338.909C234.728 338.38 235.151 337.965 235.689 337.665C236.231 337.365 236.829 337.214 237.485 337.214C238.48 337.214 239.309 337.547 239.974 338.211C240.638 338.871 240.97 339.701 240.97 340.699ZM238.545 339.068C238.241 338.818 237.883 338.693 237.473 338.693C237.062 338.693 236.705 338.818 236.4 339.068C236.095 339.313 235.89 339.643 235.784 340.058H239.167C239.062 339.643 238.854 339.313 238.545 339.068ZM247.172 334.637H248.86V344H247.172V343.207C246.592 343.841 245.873 344.159 245.014 344.159C244.091 344.159 243.321 343.826 242.703 343.162C242.085 342.498 241.776 341.673 241.776 340.687C241.776 339.701 242.085 338.875 242.703 338.211C243.321 337.547 244.091 337.214 245.014 337.214C245.877 337.214 246.596 337.53 247.172 338.16V334.637ZM245.337 342.521C245.862 342.521 246.298 342.345 246.645 341.994C246.996 341.643 247.172 341.207 247.172 340.687C247.172 340.166 246.996 339.73 246.645 339.379C246.298 339.028 245.862 338.852 245.337 338.852C244.817 338.852 244.383 339.028 244.036 339.379C243.689 339.73 243.516 340.166 243.516 340.687C243.516 341.207 243.689 341.643 244.036 341.994C244.383 342.345 244.817 342.521 245.337 342.521ZM255.709 344.159C254.635 344.159 253.704 343.82 252.916 343.143L253.735 342.026C254.298 342.517 254.943 342.762 255.671 342.762C256.018 342.762 256.3 342.707 256.516 342.597C256.736 342.487 256.846 342.335 256.846 342.14C256.846 342.034 256.814 341.941 256.75 341.861C256.691 341.78 256.594 341.711 256.458 341.651C256.323 341.592 256.192 341.543 256.065 341.505C255.942 341.467 255.769 341.423 255.544 341.372C255.392 341.338 255.271 341.311 255.183 341.29C255.094 341.268 254.971 341.237 254.814 341.194C254.662 341.148 254.537 341.105 254.44 341.067C254.347 341.029 254.235 340.979 254.103 340.915C253.972 340.847 253.864 340.78 253.78 340.712C253.699 340.644 253.613 340.562 253.519 340.464C253.431 340.367 253.359 340.263 253.304 340.153C253.253 340.043 253.211 339.916 253.177 339.772C253.143 339.629 253.126 339.474 253.126 339.309C253.126 338.856 253.251 338.469 253.5 338.147C253.75 337.826 254.074 337.591 254.472 337.443C254.874 337.291 255.326 337.214 255.83 337.214C256.808 337.214 257.664 337.504 258.401 338.084L257.582 339.214C257.04 338.808 256.469 338.604 255.868 338.604C255.563 338.604 255.314 338.653 255.119 338.75C254.924 338.848 254.827 338.99 254.827 339.176C254.827 339.282 254.857 339.375 254.916 339.455C254.975 339.531 255.073 339.599 255.208 339.658C255.343 339.713 255.475 339.76 255.602 339.798C255.728 339.832 255.904 339.872 256.128 339.918C256.323 339.961 256.48 339.997 256.598 340.026C256.717 340.056 256.871 340.103 257.061 340.166C257.252 340.229 257.406 340.293 257.525 340.356C257.648 340.42 257.779 340.507 257.918 340.617C258.062 340.722 258.174 340.837 258.255 340.959C258.335 341.082 258.403 341.232 258.458 341.41C258.517 341.588 258.547 341.78 258.547 341.988C258.547 342.441 258.42 342.834 258.166 343.168C257.912 343.503 257.574 343.752 257.15 343.917C256.727 344.078 256.247 344.159 255.709 344.159ZM261.283 336.091C261.08 336.294 260.828 336.396 260.527 336.396C260.227 336.396 259.973 336.294 259.766 336.091C259.562 335.888 259.461 335.638 259.461 335.342C259.461 335.046 259.562 334.796 259.766 334.593C259.973 334.39 260.227 334.288 260.527 334.288C260.828 334.288 261.08 334.39 261.283 334.593C261.49 334.796 261.594 335.046 261.594 335.342C261.594 335.638 261.49 335.888 261.283 336.091ZM259.683 344V337.373H261.372V344H259.683ZM265.04 342.362H268.144V344H262.673V342.762L265.688 339.011H262.724V337.373H268.056V338.604L265.04 342.362ZM275.781 340.699C275.781 340.911 275.768 341.11 275.743 341.296H270.607C270.726 341.715 270.952 342.047 271.287 342.292C271.621 342.538 272.027 342.661 272.505 342.661C272.89 342.661 273.244 342.584 273.565 342.432C273.887 342.276 274.141 342.079 274.327 341.842L275.457 342.832C275.106 343.251 274.67 343.577 274.149 343.81C273.633 344.042 273.068 344.159 272.455 344.159C271.761 344.159 271.132 344.006 270.569 343.702C270.006 343.397 269.566 342.978 269.249 342.445C268.932 341.907 268.773 341.313 268.773 340.661C268.773 340.018 268.925 339.434 269.23 338.909C269.539 338.38 269.962 337.965 270.499 337.665C271.041 337.365 271.64 337.214 272.296 337.214C273.29 337.214 274.12 337.547 274.784 338.211C275.449 338.871 275.781 339.701 275.781 340.699ZM273.356 339.068C273.051 338.818 272.694 338.693 272.283 338.693C271.873 338.693 271.515 338.818 271.21 339.068C270.906 339.313 270.7 339.643 270.595 340.058H273.978C273.872 339.643 273.665 339.313 273.356 339.068Z" fill="white"/>
<path d="M287.446 339.296C287.916 339.508 288.284 339.811 288.551 340.204C288.822 340.598 288.957 341.044 288.957 341.543C288.957 342.305 288.648 342.931 288.03 343.422C287.417 343.913 286.623 344.159 285.65 344.159C285.015 344.159 284.41 344.047 283.834 343.822C283.259 343.598 282.776 343.285 282.387 342.883L283.289 341.753C283.564 342.041 283.902 342.265 284.304 342.426C284.706 342.582 285.121 342.661 285.548 342.661C286.081 342.661 286.517 342.536 286.856 342.286C287.199 342.032 287.37 341.711 287.37 341.321C287.37 340.932 287.205 340.612 286.875 340.363C286.549 340.109 286.132 339.982 285.624 339.982H284.317V338.643H285.624C286.065 338.643 286.428 338.537 286.716 338.325C287.004 338.114 287.148 337.843 287.148 337.513C287.148 337.183 286.991 336.91 286.678 336.694C286.365 336.478 285.963 336.37 285.472 336.37C285.104 336.37 284.746 336.436 284.399 336.567C284.057 336.698 283.773 336.88 283.549 337.113L282.717 335.989C283.068 335.638 283.506 335.365 284.031 335.17C284.556 334.972 285.102 334.872 285.669 334.872C286.57 334.872 287.307 335.101 287.878 335.558C288.449 336.01 288.735 336.588 288.735 337.291C288.735 337.722 288.621 338.114 288.392 338.465C288.164 338.816 287.848 339.093 287.446 339.296ZM294.575 344L292.467 341.556L291.769 342.312V344H290.309V334.637H291.769V340.363L294.511 337.373H296.409L293.496 340.464L296.498 344H294.575ZM301.113 337.214C301.722 337.214 302.276 337.367 302.776 337.671C303.275 337.972 303.667 338.389 303.95 338.922C304.234 339.451 304.375 340.039 304.375 340.687C304.375 341.334 304.234 341.924 303.95 342.458C303.667 342.986 303.275 343.403 302.776 343.708C302.276 344.008 301.722 344.159 301.113 344.159C300.63 344.159 300.19 344.061 299.792 343.867C299.395 343.672 299.056 343.395 298.777 343.035V344H297.317V334.637H298.777V338.332C299.052 337.976 299.388 337.701 299.786 337.506C300.188 337.312 300.63 337.214 301.113 337.214ZM299.361 342.159C299.754 342.553 300.243 342.75 300.827 342.75C301.411 342.75 301.898 342.553 302.287 342.159C302.676 341.761 302.871 341.271 302.871 340.687C302.871 340.103 302.676 339.612 302.287 339.214C301.898 338.816 301.411 338.617 300.827 338.617C300.243 338.617 299.754 338.816 299.361 339.214C298.971 339.612 298.777 340.103 298.777 340.687C298.777 341.271 298.971 341.761 299.361 342.159Z" fill="white" fill-opacity="0.75"/>
<rect y="114.984" width="40" height="40" rx="10" transform="rotate(-20 0 114.984)" fill="#E15549" fill-opacity="0.6"/>
<rect x="46.9846" y="97.8829" width="40" height="40" rx="10" transform="rotate(-20 46.9846 97.8829)" fill="#E15549" fill-opacity="0.9"/>
<rect x="93.9986" y="80.8624" width="40" height="40" rx="10" transform="rotate(-20 93.9986 80.8624)" fill="#E15549" fill-opacity="0.4"/>
<rect x="140.983" y="63.7614" width="40" height="40" rx="10" transform="rotate(-20 140.983 63.7614)" fill="#E15549" fill-opacity="0.9"/>
<rect x="158.084" y="110.746" width="40" height="40" rx="10" transform="rotate(-20 158.084 110.746)" fill="#E15549" fill-opacity="0.75"/>
<rect x="111.1" y="127.847" width="40" height="40" rx="10" transform="rotate(-20 111.1 127.847)" fill="#E15549" fill-opacity="0.9"/>
<rect x="64.115" y="144.948" width="40" height="40" rx="10" transform="rotate(-20 64.115 144.948)" fill="#E15549" fill-opacity="0.5"/>
<rect x="17.1303" y="162.049" width="40" height="40" rx="10" transform="rotate(-20 17.1303 162.049)" fill="#E15549" fill-opacity="0.9"/>
<rect x="175.185" y="157.731" width="40" height="40" rx="10" transform="rotate(-20 175.185 157.731)" fill="#E15549" fill-opacity="0.9"/>
<rect x="128.201" y="174.832" width="40" height="40" rx="10" transform="rotate(-20 128.201 174.832)" fill="#E15549"/>
<rect x="81.2159" y="191.933" width="40" height="40" rx="10" transform="rotate(-20 81.2159 191.933)" fill="#E15549" fill-opacity="0.75"/>
<rect x="34.2313" y="209.034" width="40" height="40" rx="10" transform="rotate(-20 34.2313 209.034)" fill="#E15549" fill-opacity="0.3"/>
<rect x="192.286" y="204.715" width="40" height="40" rx="10" transform="rotate(-20 192.286 204.715)" fill="#E15549" fill-opacity="0.45"/>
<rect x="145.302" y="221.816" width="40" height="40" rx="10" transform="rotate(-20 145.302 221.816)" fill="#E15549" fill-opacity="0.9"/>
<rect x="98.317" y="238.917" width="40" height="40" rx="10" transform="rotate(-20 98.317 238.917)" fill="#E15549" fill-opacity="0.3"/>
<rect x="51.3323" y="256.018" width="40" height="40" rx="10" transform="rotate(-20 51.3323 256.018)" fill="#E15549" fill-opacity="0.4"/>
<rect x="670.013" y="6" width="40" height="40" rx="10" transform="rotate(20 670.013 6)" fill="#E15549" fill-opacity="0.6"/>
<rect x="716.998" y="23.101" width="40" height="40" rx="10" transform="rotate(20 716.998 23.101)" fill="#E15549" fill-opacity="0.9"/>
<rect x="763.953" y="40.2826" width="40" height="40" rx="10" transform="rotate(20 763.953 40.2826)" fill="#E15549" fill-opacity="0.4"/>
<rect x="810.938" y="57.3835" width="40" height="40" rx="10" transform="rotate(20 810.938 57.3835)" fill="#E15549" fill-opacity="0.9"/>
<rect x="793.837" y="104.368" width="40" height="40" rx="10" transform="rotate(20 793.837 104.368)" fill="#E15549" fill-opacity="0.75"/>
<rect x="746.852" y="87.2672" width="40" height="40" rx="10" transform="rotate(20 746.852 87.2672)" fill="#E15549" fill-opacity="0.9"/>
<rect x="699.867" y="70.1661" width="40" height="40" rx="10" transform="rotate(20 699.867 70.1661)" fill="#E15549" fill-opacity="0.5"/>
<rect x="652.883" y="53.0652" width="40" height="40" rx="10" transform="rotate(20 652.883 53.0652)" fill="#E15549" fill-opacity="0.9"/>
<rect x="776.736" y="151.353" width="40" height="40" rx="10" transform="rotate(20 776.736 151.353)" fill="#E15549" fill-opacity="0.9"/>
<rect x="729.751" y="134.252" width="40" height="40" rx="10" transform="rotate(20 729.751 134.252)" fill="#E15549"/>
<rect x="682.766" y="117.151" width="40" height="40" rx="10" transform="rotate(20 682.766 117.151)" fill="#E15549" fill-opacity="0.75"/>
<rect x="635.782" y="100.05" width="40" height="40" rx="10" transform="rotate(20 635.782 100.05)" fill="#E15549" fill-opacity="0.3"/>
<rect x="759.635" y="198.337" width="40" height="40" rx="10" transform="rotate(20 759.635 198.337)" fill="#E15549" fill-opacity="0.45"/>
<rect x="712.65" y="181.236" width="40" height="40" rx="10" transform="rotate(20 712.65 181.236)" fill="#E15549" fill-opacity="0.9"/>
<rect x="665.665" y="164.135" width="40" height="40" rx="10" transform="rotate(20 665.665 164.135)" fill="#E15549" fill-opacity="0.3"/>
<rect x="618.681" y="147.034" width="40" height="40" rx="10" transform="rotate(20 618.681 147.034)" fill="#E15549" fill-opacity="0.4"/>
<defs>
<linearGradient id="paint0_linear_8_2" x1="424" y1="0" x2="424" y2="804.661" gradientUnits="userSpaceOnUse">
<stop stop-color="#FFDA92" stop-opacity="0.33"/>
<stop offset="1" stop-color="white" stop-opacity="0"/>
</linearGradient>
<linearGradient id="paint1_linear_8_2" x1="424" y1="300" x2="424" y2="514.576" gradientUnits="userSpaceOnUse">
<stop stop-color="#A97C24" stop-opacity="0.15"/>
<stop offset="1" stop-color="white" stop-opacity="0"/>
</linearGradient>
</defs>
</svg>
